<svg width="17" height="17" viewBox="0 0 17 17" fill="none" xmlns="http://www.w3.org/2000/svg">
<path d="M6.74143 0.167259C3.45607 0.811322 0.810566 3.45999 0.167207 6.74499C-0.804512 11.6985 2.58068 16.1036 7.16682 16.768C7.83514 16.8696 8.43842 16.337 8.43842 15.661L8.43842 15.6377C8.43842 15.0843 8.03623 14.6223 7.49483 14.5394C4.5294 14.083 2.24951 11.5114 2.24951 8.41516C2.24951 4.79758 5.36471 1.89367 9.04873 2.24875C12.2669 2.56055 14.6245 5.45676 14.6245 8.68938V9.2575C14.6245 10.0341 13.9938 10.6655 13.2183 10.6655C12.4427 10.6655 11.8117 10.0341 11.8117 9.2575V5.03524C11.8117 4.72421 11.5599 4.47203 11.2488 4.47203L10.1245 4.47216C9.86791 4.47216 9.66045 4.64766 9.59295 4.88278C8.71932 4.45564 7.68608 4.30692 6.56741 4.70328C5.2051 5.18597 4.17256 6.42277 3.97569 7.85468C3.6423 10.2808 5.51588 12.3547 7.87452 12.3547C8.80405 12.3547 9.64744 12.0192 10.321 11.48C11.1648 12.5804 12.6143 13.1918 14.1671 12.798C15.7906 12.4217 16.8735 10.8326 16.8418 9.18378V8.44902C16.8418 3.2037 12.1344 -0.889608 6.74143 0.167259ZM7.84182 10.1365C6.91123 10.1365 6.15432 9.37855 6.15432 8.44726C6.15432 7.51597 6.91123 6.758 7.84182 6.758C8.7724 6.758 9.52932 7.51597 9.52932 8.44726C9.52932 9.37855 8.8051 10.1365 7.84182 10.1365Z" fill="#838383"/>
</svg>
